HIERARCHY
ROOT Hips
{
	OFFSET -3.958830 18.904000 13.208200
	CHANNELS 6 Xposition Yposition Zposition Zrotation Yrotation Xrotation 
	JOINT LHipJoint
	{
		OFFSET 0.000000 0.000000 0.000000
		CHANNELS 3 Zrotation Yrotation Xrotation
		JOINT LeftUpLeg
		{
			OFFSET 1.800000 -1.400000 0.085000
			CHANNELS 3 Zrotation Yrotation Xrotation
			JOINT LeftLeg
			{
				OFFSET 2.215000 -6.000000 0.000000
				CHANNELS 3 Zrotation Yrotation Xrotation
				JOINT LeftFoot
				{
					OFFSET 2.500000 -6.900000 0.000000
					CHANNELS 3 Zrotation Yrotation Xrotation
					JOINT LeftToeBase
					{
						OFFSET 0.200000 -0.500000 1.950000
						CHANNELS 3 Zrotation Yrotation Xrotation
						End Site
						{
							OFFSET 0.000000 0.000000 0.000000
						}
					}
				}
			}
		}
	}
	JOINT RHipJoint
	{
		OFFSET 0.000000 0.000000 0.000000
		CHANNELS 3 Zrotation Yrotation Xrotation
		JOINT RightUpLeg
		{
			OFFSET -1.800000 -1.400000 0.085000
			CHANNELS 3 Zrotation Yrotation Xrotation
			JOINT RightLeg
			{
				OFFSET -2.215000 -6.000000 0.000000
				CHANNELS 3 Zrotation Yrotation Xrotation
				JOINT RightFoot
				{
					OFFSET -2.500000 -6.900000 0.000000
					CHANNELS 3 Zrotation Yrotation Xrotation
					JOINT RightToeBase
					{
						OFFSET -0.200000 -0.500000 1.950000
						CHANNELS 3 Zrotation Yrotation Xrotation
						End Site
						{
							OFFSET 0.000000 0.000000 0.000000
						}
					}
				}
			}
		}
	}
	JOINT LowerBack
	{
		OFFSET 0.000000 0.000000 0.000000
		CHANNELS 3 Zrotation Yrotation Xrotation
		JOINT Spine
		{
			OFFSET -0.087000 1.940000 -0.288900
			CHANNELS 3 Zrotation Yrotation Xrotation
			JOINT Spine1
			{
				OFFSET 0.000000 1.950000 0.060000
				CHANNELS 3 Zrotation Yrotation Xrotation
				JOINT Neck
				{
					OFFSET 0.000000 0.000000 0.000000
					CHANNELS 3 Zrotation Yrotation Xrotation
					JOINT Neck1
					{
						OFFSET 0.000000 1.600000 0.340000
						CHANNELS 3 Zrotation Yrotation Xrotation
						JOINT Head
						{
							OFFSET 0.000000 1.667000 -0.240000
							CHANNELS 3 Zrotation Yrotation Xrotation
							End Site
							{
								OFFSET 0.000000 0.000000 0.000000
							}
						}
					}
				}
				JOINT LeftShoulder
				{
					OFFSET 0.000000 0.000000 0.000000
					CHANNELS 3 Zrotation Yrotation Xrotation
					JOINT LeftArm
					{
						OFFSET 2.700000 1.550000 -0.730000
						CHANNELS 3 Zrotation Yrotation Xrotation
						JOINT LeftForeArm
						{
							OFFSET 5.450000 0.000000 0.000000
							CHANNELS 3 Zrotation Yrotation Xrotation
							JOINT LeftHand
							{
								OFFSET 3.450000 0.000000 0.000000
								CHANNELS 3 Zrotation Yrotation Xrotation
								JOINT LeftHandIndex1
								{
									OFFSET 0.750000 0.000000 0.000000
									CHANNELS 3 Zrotation Yrotation Xrotation
									End Site
									{
										OFFSET 0.000000 0.000000 0.000000
									}
								}
							}
						}
					}
				}
				JOINT RightShoulder
				{
					OFFSET 0.000000 0.000000 0.000000
					CHANNELS 3 Zrotation Yrotation Xrotation
					JOINT RightArm
					{
						OFFSET -2.700000 1.550000 -0.730000
						CHANNELS 3 Zrotation Yrotation Xrotation
						JOINT RightForeArm
						{
							OFFSET -5.450000 0.000000 0.000000
							CHANNELS 3 Zrotation Yrotation Xrotation
							JOINT RightHand
							{
								OFFSET -3.450000 0.000000 0.000000
								CHANNELS 3 Zrotation Yrotation Xrotation
								JOINT RightHandIndex1
								{
									OFFSET -0.750000 0.000000 0.000000
									CHANNELS 3 Zrotation Yrotation Xrotation
									End Site
									{
										OFFSET 0.000000 0.000000 0.000000
									}
								}
							}
						}
					}
				}
			}
		}
	}
}
MOTION
Frames: 12
Frame Time: 0.016667
1.690870 17.496510 -0.659810 -1.494561 12.457801 3.546242 -15.227701 13.258479 3.012553 -0.664040 0.826405 2.473395 -9.541176 6.526348 7.809428 -0.168362 4.982959 3.029290 0.251060 -0.109970 0.235220 18.463078 -9.314918 3.716087 13.071099 5.503958 -26.646373 7.442388 -2.946800 6.722472 0.122568 -1.477038 4.023070 -0.007090 0.253770 0.053490 -3.956778 -3.534200 -7.968716 13.811203 -7.785807 12.134139 -4.095316 -6.157845 7.303123 0.885208 -5.801668 -11.056599 -19.763446 6.888930 49.660514 -0.496240 0.370370 -1.161890 -17.285972 -8.763829 3.716747 -45.313723 -12.313289 0.755639 -71.362507 -50.930002 31.523422 -3.665755 3.246569 0.572880 0.067940 -0.075890 0.141700 15.566574 9.861123 7.184944 48.128706 -4.111555 -8.660269 11.096988 15.088553 -0.061800 2.256011 -1.054938 -0.310940 0.298190 0.046290 -0.221660 
1.718580 17.484680 -0.628390 -1.095757 11.925806 3.633950 -15.236020 13.233709 3.043276 -1.201754 0.964740 2.925553 -9.786164 6.588875 7.731927 -0.166776 5.040810 3.010770 0.249700 -0.118870 0.233940 18.467473 -9.292160 3.697821 13.317290 5.370280 -26.268615 6.845417 -2.773405 5.804177 0.121189 -1.437381 4.035429 -0.008790 0.257100 0.058860 -3.939952 -3.551640 -7.960006 13.705517 -7.714979 11.752799 -4.313438 -6.123444 7.423138 0.970661 -5.990458 -11.201389 -20.310956 7.195863 49.683725 -0.701510 0.419960 -1.387650 -17.064472 -8.852264 3.761323 -45.368161 -12.243611 0.669225 -69.936813 -50.088237 30.090644 -3.659743 3.231009 0.592200 0.065760 -0.071770 0.142670 15.176519 10.119753 7.366384 48.058579 -4.061650 -8.602433 11.514192 15.037714 -0.020034 2.248493 -1.048418 -0.320400 0.304630 0.053730 -0.226360 
1.762790 17.472400 -0.568070 -0.615070 10.995643 3.403561 -15.247664 13.212319 3.104544 -1.850986 1.198690 4.010381 -10.147777 6.704124 7.540423 -0.134239 5.104922 2.970288 0.293500 -0.064520 0.268120 18.470105 -9.259449 3.659626 13.424433 5.048009 -25.214776 6.750287 -2.627540 4.308136 0.077839 -1.404469 4.043080 0.010640 0.207090 0.045240 -3.910785 -3.610818 -7.965799 13.629550 -7.729740 11.575632 -4.667701 -6.137722 7.601444 1.135704 -6.345424 -11.734960 -21.779652 8.287011 50.735689 -0.198380 0.533820 -2.991870 -16.536908 -9.334298 4.035113 -45.472520 -12.095833 0.292111 -67.100815 -48.784505 27.494522 -3.596371 3.197658 0.635610 0.015330 -0.024940 0.144370 14.377410 10.918260 7.797059 48.155910 -3.865178 -8.586144 11.829225 15.159768 0.046967 2.251808 -1.024090 -0.308030 0.317020 0.031280 -0.234190 
1.807700 17.444110 -0.487330 -0.254229 10.379761 3.351359 -15.252951 13.186771 3.140244 -2.265842 1.375774 4.966487 -10.395292 6.823116 7.461889 -0.093667 5.181890 2.936653 0.303910 -0.051360 0.285220 18.480093 -9.223996 3.636119 13.644040 4.865115 -24.541308 6.553964 -2.523946 3.366164 0.057860 -1.388937 4.044490 0.009720 0.183000 0.038000 -3.906300 -3.650068 -7.957207 13.806642 -7.708853 10.987300 -5.101411 -6.145460 7.644367 1.302518 -6.424151 -12.127266 -22.438938 8.854586 51.324244 0.018390 0.618390 -3.442110 -15.881319 -9.785136 4.120641 -45.465870 -12.411285 0.287630 -63.240202 -45.927216 23.785358 -3.562036 3.163767 0.652040 -0.009120 -0.003110 0.138890 13.391817 11.419189 8.248466 48.592331 -4.170780 -8.882492 12.074913 15.960182 0.105042 2.252497 -1.014954 -0.300950 0.319210 0.022640 -0.236770 
1.862170 17.419100 -0.393980 -0.143388 10.094673 3.094897 -15.247799 13.193666 3.164954 -2.351702 1.415313 5.798675 -10.671478 7.051929 8.035962 -0.052362 5.295722 2.880590 0.315780 -0.041130 0.309770 18.489002 -9.215557 3.611681 13.806961 4.721442 -23.943307 6.282187 -2.561910 3.557331 0.033241 -1.401716 4.031560 0.000440 0.144130 0.050240 -3.923103 -3.691980 -7.952166 14.426968 -7.808504 10.528837 -5.654312 -6.214838 7.676176 1.686214 -6.287451 -12.597611 -22.659171 9.041673 52.225771 -0.743600 0.939400 -3.805970 -15.530585 -10.650847 4.235207 -45.128993 -13.029407 0.527730 -60.442692 -43.346479 21.074889 -3.536324 3.142502 0.670020 -0.028160 0.027680 0.126930 12.264281 12.131159 8.850629 49.278933 -4.703174 -9.345955 12.071250 16.993744 0.150971 2.243912 -1.015018 -0.280350 0.298670 0.015270 -0.245710 
1.905770 17.390040 -0.293680 0.184251 10.103064 3.021780 -15.249384 13.223332 3.180297 -2.279156 1.372882 6.273170 -11.127606 7.356300 8.899746 -0.011158 5.441657 2.831564 0.299850 -0.059840 0.302850 18.485605 -9.216040 3.574380 13.639530 4.607000 -23.810647 5.998680 -2.633635 4.271654 0.035557 -1.415521 4.031343 -0.017030 0.146380 0.053840 -3.917380 -3.763643 -7.931853 14.576810 -8.016347 10.087743 -6.157073 -6.413135 7.666405 1.894366 -6.259728 -12.921882 -22.669587 9.162616 51.894560 -1.028520 1.231120 -3.620140 -15.259839 -11.231207 4.377364 -44.633514 -13.230368 0.663292 -59.361595 -42.069171 19.942481 -3.534400 3.130310 0.670480 -0.024570 0.027600 0.121970 11.560437 12.610016 9.281729 49.566029 -5.274081 -9.830058 13.004276 18.276618 0.272397 2.227695 -1.022093 -0.278890 0.293320 0.021990 -0.245640 
1.949440 17.381550 -0.191810 0.265710 10.028061 2.521762 -15.238093 13.259038 3.195576 -2.075170 1.271548 6.876495 -11.378931 7.656083 9.946006 0.011591 5.591288 2.769943 0.305350 -0.053540 0.319150 18.488700 -9.247656 3.528804 13.374529 4.411171 -23.253363 5.863594 -2.778765 5.260622 0.015708 -1.459064 4.008755 -0.015860 0.125310 0.050880 -3.940138 -3.798535 -7.913805 15.086398 -8.308913 10.141749 -6.630575 -6.628180 7.696795 2.112026 -6.298730 -13.183109 -22.991904 9.460755 52.143686 -1.309970 1.523190 -4.358700 -15.559104 -11.859436 4.469847 -43.702833 -13.434148 0.747110 -59.084552 -41.951924 19.822500 -3.519358 3.113116 0.689640 -0.040240 0.044840 0.111090 11.413864 13.144348 9.608605 49.053879 -5.445723 -9.831506 14.040450 18.718232 0.411559 2.221093 -1.012745 -0.279100 0.296780 0.022490 -0.255660 
1.991450 17.386760 -0.081570 0.132677 9.760056 2.082532 -15.215532 13.297900 3.189678 -1.940095 1.165202 7.298751 -11.045429 7.814779 11.048255 0.019583 5.693329 2.733440 0.296670 -0.072100 0.323260 18.502437 -9.288963 3.495754 13.267095 4.276957 -22.688009 5.626228 -2.944685 6.469819 0.001288 -1.525457 3.979621 -0.026610 0.121840 0.054700 -3.992177 -3.808258 -7.878374 15.971568 -8.621902 10.044833 -7.126185 -6.865960 7.602588 2.343583 -6.394831 -13.459826 -23.390284 9.772533 52.342762 -1.746370 1.775830 -4.299180 -16.039196 -12.452635 4.612900 -42.869765 -13.161819 0.635135 -58.383633 -41.062042 19.042715 -3.514349 3.098053 0.704170 -0.043810 0.049480 0.104020 11.407004 13.695189 9.933603 48.470856 -5.661391 -9.853704 14.755947 19.229838 0.536316 2.213732 -1.010186 -0.285170 0.296500 0.030580 -0.263130 
2.026040 17.404910 0.024360 0.185593 9.415448 1.659831 -15.194592 13.338782 3.194086 -1.880244 0.972533 7.371365 -11.037495 8.098600 12.698026 0.035970 5.825280 2.668307 0.302890 -0.076930 0.343140 18.506199 -9.356832 3.462405 13.007753 4.152277 -22.385943 5.332611 -3.156020 8.158654 -0.014223 -1.599845 3.939060 -0.034900 0.097490 0.069270 -4.027365 -3.783510 -7.863281 16.444993 -8.780745 10.184504 -7.571369 -6.935224 7.473667 2.578153 -6.296151 -13.642519 -23.241772 9.885554 52.848311 -2.007420 1.975920 -4.500070 -16.636666 -13.009881 4.689722 -42.062907 -12.867885 0.442744 -57.349065 -39.912237 18.008982 -3.505214 3.099962 0.716320 -0.053530 0.061980 0.086530 11.513029 14.148808 10.174475 47.937447 -5.772901 -9.827104 15.687800 19.578710 0.666406 2.213464 -1.015637 -0.273000 0.273390 0.034010 -0.274830 
2.055700 17.437590 0.134760 0.583643 8.861389 1.288516 -15.200907 13.420893 3.226435 -2.074734 0.773349 7.190078 -11.107488 8.431586 14.679725 0.054747 5.968331 2.601625 0.312330 -0.066740 0.352250 18.476170 -9.416437 3.414069 12.372680 3.858909 -21.695280 5.285571 -3.325994 9.109432 -0.042513 -1.671271 3.906138 -0.032740 0.070960 0.064200 -3.972353 -3.865204 -7.878131 16.071146 -8.808628 10.472516 -7.456826 -6.914808 7.174566 2.790384 -6.275277 -14.048888 -23.609793 10.516921 53.833153 -1.923120 2.274290 -4.823340 -17.327911 -13.625425 4.907324 -41.814156 -12.186996 0.034562 -55.161463 -38.252962 16.185512 -3.472920 3.078885 0.742760 -0.077040 0.082840 0.082380 11.875278 14.857976 10.523293 47.216291 -6.040617 -9.810633 16.295585 19.848697 0.770309 2.212520 -1.006904 -0.272490 0.270850 0.030710 -0.283930 
2.090380 17.472750 0.241960 1.009979 8.124089 0.884699 -15.199164 13.483037 3.252129 -2.219625 0.430148 6.670223 -11.418180 8.907429 17.241275 0.081243 6.184209 2.512718 0.337850 -0.044190 0.381340 18.454038 -9.496892 3.354171 11.597923 3.547402 -20.966052 5.205465 -3.506255 10.093205 -0.077179 -1.746254 3.875716 -0.024330 0.046550 0.059340 -3.936314 -3.888808 -7.876452 15.821977 -8.778181 10.907233 -7.417280 -6.819208 6.989460 2.929661 -6.371274 -14.287137 -24.098089 11.030600 54.403618 -1.566480 2.283470 -5.947490 -17.481411 -13.843924 5.021018 -42.040838 -11.658620 -0.364985 -53.029243 -36.697990 14.476443 -3.444750 3.043611 0.774620 -0.104110 0.107810 0.079400 11.827207 15.292614 10.663010 46.610477 -5.825475 -9.699366 17.187226 19.950080 0.892541 2.213715 -0.991340 -0.270750 0.281840 0.020090 -0.293600 
2.114240 17.502240 0.349460 1.676690 7.638757 0.837795 -15.220938 13.546867 3.270602 -2.109991 -0.152221 5.417194 -12.200532 9.590903 20.272601 0.151456 6.470275 2.395634 0.347260 -0.019670 0.379450 18.409919 -9.554584 3.287499 10.504280 3.218369 -20.277305 5.646517 -3.676366 10.365233 -0.099247 -1.831651 3.844395 -0.021900 0.027260 0.063040 -3.836812 -3.962535 -7.878116 14.876356 -8.658903 10.902679 -6.868840 -6.796769 6.902457 2.996272 -6.414560 -14.352189 -24.138999 11.138856 54.405241 -1.889740 2.504300 -6.116070 -17.236124 -13.694442 5.113644 -42.875183 -11.166992 -0.696475 -50.585096 -34.993588 12.715435 -3.431513 3.042916 0.765680 -0.112570 0.121100 0.081210 11.550198 15.408490 10.618109 46.338386 -5.387383 -9.517795 17.718680 19.886272 0.955310 2.226829 -1.003502 -0.249270 0.265270 0.010550 -0.286010 
